<svg width="592" height="181" viewBox="0 0 592 181" fill="none" xmlns="http://www.w3.org/2000/svg">
<g clip-path="url(#clip0)">
<rect width="602" height="199" fill="black"/>
<path d="M541 -1L529.389 21.412L519.299 40.86L446.69 181H-1V-1H541Z" fill="#1F434B"/>
<g filter="url(#filter0_d)">
<path d="M165.846 91.181C166.305 91.181 166.659 91.393 166.906 91.817C167.189 92.241 167.33 92.824 167.33 93.566C167.33 94.9793 166.994 96.0747 166.323 96.852C164.804 98.7247 163.161 100.262 161.394 101.463C159.663 102.664 157.684 103.265 155.458 103.265C153.585 103.265 152.066 102.594 150.9 101.251C148.886 102.558 146.784 103.23 144.593 103.265C144.134 110.084 143.091 115.773 141.466 120.331C139.841 124.924 137.456 127.221 134.311 127.221C132.403 127.221 130.99 126.532 130.071 125.154C129.152 123.776 128.693 121.868 128.693 119.43C128.693 115.967 129.488 111.922 131.078 107.293C132.668 102.7 135.124 97.6293 138.445 92.082C138.445 86.9233 138.41 83.337 138.339 81.323C138.304 80.2983 138.71 79.4857 139.558 78.885C140.406 78.2843 141.466 77.984 142.738 77.984C143.48 77.984 144.01 78.143 144.328 78.461C144.681 78.7437 144.876 79.3267 144.911 80.21C144.911 81.0933 144.929 81.747 144.964 82.171C146.095 80.7577 147.208 79.7507 148.303 79.15C149.398 78.514 150.564 78.196 151.801 78.196C153.78 78.196 155.387 78.991 156.624 80.581C157.896 82.171 158.532 84.2557 158.532 86.835C158.532 88.7077 158.232 90.5273 157.631 92.294C157.03 94.0607 156.2 95.6683 155.14 97.117C155.882 97.329 156.5 97.435 156.995 97.435C158.161 97.435 159.274 97.011 160.334 96.163C161.394 95.315 162.754 93.9017 164.415 91.923C164.839 91.4283 165.316 91.181 165.846 91.181ZM144.858 98.177C146.13 97.8943 147.296 97.2053 148.356 96.11C149.451 94.9793 150.317 93.6013 150.953 91.976C151.589 90.3153 151.907 88.584 151.907 86.782C151.907 85.722 151.695 84.927 151.271 84.397C150.847 83.8317 150.282 83.549 149.575 83.549C148.303 83.549 146.766 84.8917 144.964 87.577C144.929 89.1317 144.911 91.4107 144.911 94.414C144.911 96.0393 144.893 97.2937 144.858 98.177ZM134.735 122.027C135.689 122.027 136.484 119.942 137.12 115.773C137.756 111.639 138.162 106.48 138.339 100.297C136.82 103.83 135.618 107.205 134.735 110.42C133.852 113.635 133.41 116.338 133.41 118.529C133.41 119.66 133.551 120.525 133.834 121.126C134.081 121.727 134.382 122.027 134.735 122.027ZM183.148 91.181C183.607 91.181 183.96 91.393 184.208 91.817C184.49 92.241 184.632 92.824 184.632 93.566C184.632 94.9793 184.296 96.0747 183.625 96.852C182.105 98.7247 180.445 100.262 178.643 101.463C176.876 102.664 174.862 103.265 172.601 103.265C169.491 103.265 167.177 101.852 165.658 99.025C164.174 96.1983 163.432 92.5413 163.432 88.054C163.432 83.7433 163.979 78.832 165.075 73.32C166.205 67.808 167.848 63.0733 170.004 59.116C172.194 55.1587 174.791 53.18 177.795 53.18C179.491 53.18 180.816 53.975 181.77 55.565C182.759 57.1197 183.254 59.3633 183.254 62.296C183.254 66.5007 182.088 71.3767 179.756 76.924C177.424 82.4713 174.261 87.9657 170.269 93.407C170.516 94.8557 170.922 95.898 171.488 96.534C172.053 97.1347 172.795 97.435 173.714 97.435C175.162 97.435 176.434 97.0287 177.53 96.216C178.625 95.368 180.021 93.937 181.717 91.923C182.141 91.4283 182.618 91.181 183.148 91.181ZM176.629 58.427C175.816 58.427 174.897 59.8933 173.873 62.826C172.848 65.7587 171.947 69.398 171.17 73.744C170.392 78.09 169.968 82.2593 169.898 86.252C172.406 82.118 174.403 77.984 175.887 73.85C177.371 69.6807 178.113 65.8823 178.113 62.455C178.113 59.7697 177.618 58.427 176.629 58.427ZM186.349 103.265C184.158 103.265 182.409 102.47 181.102 100.88C179.795 99.29 179.141 97.2053 179.141 94.626C179.141 91.7993 179.795 89.1317 181.102 86.623C182.409 84.079 184.141 82.0473 186.296 80.528C188.487 78.9733 190.801 78.196 193.239 78.196C194.016 78.196 194.529 78.355 194.776 78.673C195.059 78.9557 195.288 79.4857 195.465 80.263C196.207 80.1217 196.984 80.051 197.797 80.051C199.528 80.051 200.394 80.6693 200.394 81.906C200.394 82.648 200.129 84.4147 199.599 87.206C198.786 91.2693 198.38 94.096 198.38 95.686C198.38 96.216 198.504 96.64 198.751 96.958C199.034 97.276 199.387 97.435 199.811 97.435C200.482 97.435 201.295 97.011 202.249 96.163C203.203 95.2797 204.493 93.8663 206.118 91.923C206.542 91.4283 207.019 91.181 207.549 91.181C208.008 91.181 208.362 91.393 208.609 91.817C208.892 92.241 209.033 92.824 209.033 93.566C209.033 94.9793 208.697 96.0747 208.026 96.852C206.577 98.654 205.04 100.173 203.415 101.41C201.79 102.647 200.217 103.265 198.698 103.265C197.532 103.265 196.454 102.876 195.465 102.099C194.511 101.286 193.787 100.191 193.292 98.813C191.455 101.781 189.14 103.265 186.349 103.265ZM188.257 97.912C189.034 97.912 189.776 97.4527 190.483 96.534C191.19 95.6153 191.702 94.3963 192.02 92.877L193.981 83.125C192.497 83.1603 191.119 83.7257 189.847 84.821C188.61 85.881 187.621 87.2943 186.879 89.061C186.137 90.8277 185.766 92.7003 185.766 94.679C185.766 95.7743 185.978 96.587 186.402 97.117C186.861 97.647 187.48 97.912 188.257 97.912ZM208.489 103.265C207.146 103.265 206.192 102.558 205.627 101.145C205.097 99.7317 204.832 97.4703 204.832 94.361C204.832 89.7677 205.485 85.404 206.793 81.27C207.111 80.2453 207.623 79.5033 208.33 79.044C209.072 78.5493 210.096 78.302 211.404 78.302C212.11 78.302 212.605 78.3903 212.888 78.567C213.17 78.7437 213.312 79.0793 213.312 79.574C213.312 80.1393 213.047 81.4113 212.517 83.39C212.163 84.8033 211.881 86.04 211.669 87.1C211.457 88.16 211.28 89.4673 211.139 91.022C212.305 87.9833 213.612 85.51 215.061 83.602C216.509 81.694 217.923 80.3337 219.301 79.521C220.714 78.7083 222.004 78.302 223.17 78.302C225.466 78.302 226.615 79.4503 226.615 81.747C226.615 83.125 226.226 85.616 225.449 89.22C224.777 92.294 224.442 94.3257 224.442 95.315C224.442 96.7283 224.954 97.435 225.979 97.435C226.685 97.435 227.516 97.011 228.47 96.163C229.459 95.2797 230.766 93.8663 232.392 91.923C232.816 91.4283 233.293 91.181 233.823 91.181C234.282 91.181 234.635 91.393 234.883 91.817C235.165 92.241 235.307 92.824 235.307 93.566C235.307 94.9793 234.971 96.0747 234.3 96.852C232.78 98.7247 231.137 100.262 229.371 101.463C227.639 102.664 225.661 103.265 223.435 103.265C221.633 103.265 220.272 102.753 219.354 101.728C218.435 100.668 217.976 99.1487 217.976 97.17C217.976 96.1807 218.223 94.414 218.718 91.87C219.177 89.644 219.407 88.107 219.407 87.259C219.407 86.6937 219.212 86.411 218.824 86.411C218.364 86.411 217.711 87.0117 216.863 88.213C216.05 89.379 215.202 90.9337 214.319 92.877C213.471 94.8203 212.782 96.8697 212.252 99.025C211.863 100.686 211.404 101.816 210.874 102.417C210.379 102.982 209.584 103.265 208.489 103.265ZM254.657 58.374C255.575 58.374 256.353 58.6037 256.989 59.063C257.625 59.487 257.943 60.017 257.943 60.653C257.943 61.7837 257.589 62.7023 256.883 63.409C256.176 64.0803 255.169 64.416 253.862 64.416C251.812 64.416 250.258 64.4337 249.198 64.469C249.127 64.893 248.809 66.801 248.244 70.193C247.608 73.9737 247.219 76.288 247.078 77.136L245.965 84.079C245.187 89.273 244.569 93.619 244.11 97.117C244.852 97.0817 245.859 97.064 247.131 97.064C249.003 97.064 250.275 97.3113 250.947 97.806C251.618 98.3007 251.954 99.0427 251.954 100.032C251.954 100.951 251.583 101.728 250.841 102.364C250.134 103 249.127 103.318 247.82 103.318C246.936 103.318 245.541 103.283 243.633 103.212C241.866 103.141 240.7 103.106 240.135 103.106C237.909 103.106 235.471 103.3 232.821 103.689C231.655 103.866 230.824 103.954 230.33 103.954C229.552 103.954 228.899 103.742 228.369 103.318C227.839 102.894 227.574 102.276 227.574 101.463C227.574 100.191 228.139 99.2017 229.27 98.495C230.4 97.7883 231.99 97.4173 234.04 97.382L236.531 97.329L236.69 96.163C237.538 90.5097 238.156 86.517 238.545 84.185L239.711 77.242C240.417 73.1433 241.053 68.921 241.619 64.575L237.167 64.628C235.895 64.628 235.011 64.4337 234.517 64.045C234.057 63.621 233.828 63.038 233.828 62.296C233.828 59.8933 235.559 58.6037 239.022 58.427C240.647 58.3563 242.626 58.321 244.958 58.321L254.657 58.374ZM266.005 83.337C265.934 85.1037 265.899 86.4817 265.899 87.471C265.899 90.015 266.022 92.0113 266.27 93.46C266.552 94.8733 266.994 95.898 267.595 96.534C268.231 97.1347 269.096 97.435 270.192 97.435C270.757 97.435 271.428 97.2583 272.206 96.905C272.983 96.5517 273.69 96.0923 274.326 95.527C274.714 95.1737 275.103 94.997 275.492 94.997C275.916 94.997 276.251 95.2443 276.499 95.739C276.781 96.1983 276.923 96.7637 276.923 97.435C276.923 98.1063 276.781 98.76 276.499 99.396C276.251 100.032 275.863 100.562 275.333 100.986C273.495 102.505 271.411 103.265 269.079 103.265C265.722 103.265 263.266 101.869 261.712 99.078C260.157 96.2513 259.38 92.5767 259.38 88.054C259.38 86.4993 259.433 84.927 259.539 83.337H257.472C256.412 83.337 255.687 83.1427 255.299 82.754C254.945 82.3653 254.769 81.747 254.769 80.899C254.769 78.9203 255.564 77.931 257.154 77.931H260.175C260.775 74.0443 261.694 70.4933 262.931 67.278C264.167 64.0627 265.651 61.501 267.383 59.593C269.149 57.685 271.04 56.731 273.054 56.731C274.538 56.731 275.704 57.3847 276.552 58.692C277.4 59.9993 277.824 61.6423 277.824 63.621C277.824 69.0977 275.527 73.8677 270.934 77.931H276.87C277.435 77.931 277.841 78.0547 278.089 78.302C278.336 78.5493 278.46 79.0087 278.46 79.68C278.46 82.118 276.463 83.337 272.471 83.337H266.005ZM271.623 61.819C271.093 61.819 270.492 62.4903 269.821 63.833C269.185 65.1403 268.566 66.9777 267.966 69.345C267.4 71.677 266.923 74.274 266.535 77.136C268.619 75.334 270.174 73.32 271.199 71.094C272.259 68.8327 272.789 66.7833 272.789 64.946C272.789 62.8613 272.4 61.819 271.623 61.819Z" fill="white"/>
</g>
<path d="M471.676 151.61L530.444 40.6273L540.755 21.147L471.676 151.61ZM456.124 181L456.111 181.013L446.467 199.23" fill="black"/>
<path d="M579.32 90.5C579.32 134.843 537.732 171.489 485.504 171.489C433.276 171.489 391.687 134.843 391.687 90.5C391.687 46.1571 433.276 9.5108 485.504 9.5108C537.732 9.5108 579.32 46.1571 579.32 90.5Z" fill="black" stroke="white" stroke-width="6"/>
<path d="M530.57 44.2734L530.459 148.941L520.999 148.928L521.073 80.8901L484.813 148.876L475.02 148.863L530.57 44.2734V44.2734Z" fill="white"/>
<rect width="6.28062" height="230.195" transform="matrix(0.860286 0.509811 -0.469409 0.882981 544.842 -7.81293)" fill="white"/>
</g>
<defs>
<filter id="filter0_d" x="124.693" y="53.18" width="157.767" height="82.041" filterUnits="userSpaceOnUse" color-interpolation-filters="sRGB">
<feFlood flood-opacity="0" result="BackgroundImageFix"/>
<feColorMatrix in="SourceAlpha" type="matrix" values="0 0 0 0 0 0 0 0 0 0 0 0 0 0 0 0 0 0 127 0"/>
<feOffset dy="4"/>
<feGaussianBlur stdDeviation="2"/>
<feColorMatrix type="matrix" values="0 0 0 0 0 0 0 0 0 0 0 0 0 0 0 0 0 0 0.25 0"/>
<feBlend mode="normal" in2="BackgroundImageFix" result="effect1_dropShadow"/>
<feBlend mode="normal" in="SourceGraphic" in2="effect1_dropShadow" result="shape"/>
</filter>
<clipPath id="clip0">
<rect width="592" height="181" fill="white"/>
</clipPath>
</defs>
</svg>
