<svg width="495" height="139" viewBox="0 0 495 139" fill="none" xmlns="http://www.w3.org/2000/svg">
<g clip-path="url(#clip0)">
<rect width="495" height="139" fill="black"/>
<path d="M464.062 -1L454.1 16.24L445.442 31.2L383.14 139H-0.997986V-1H464.062Z" fill="#1F434B"/>
<g filter="url(#filter0_d)">
<path d="M88.371 53.108C88.371 57.4713 87.2417 61.4753 84.983 65.12C82.7243 68.7647 79.439 71.742 75.127 74.052C70.815 76.362 65.6817 77.7223 59.727 78.133L56.416 96.69C55.1327 103.825 51.642 107.393 45.944 107.393C42.8127 107.393 39.9123 106.469 37.243 104.621C34.625 102.773 32.5203 99.9497 30.929 96.151C29.3377 92.3523 28.542 87.681 28.542 82.137C28.542 71.7163 30.2103 62.887 33.547 55.649C36.935 48.3597 41.4523 42.9183 47.099 39.325C52.797 35.6803 59.0597 33.858 65.887 33.858C70.7123 33.858 74.7933 34.705 78.13 36.399C81.518 38.093 84.059 40.403 85.753 43.329C87.4983 46.2037 88.371 49.4633 88.371 53.108ZM61.113 70.202C71.6363 68.8673 76.898 63.4003 76.898 53.801C76.898 50.413 75.7687 47.6667 73.51 45.562C71.3027 43.406 67.8633 42.328 63.192 42.328C57.9047 42.328 53.2847 43.9963 49.332 47.333C45.4307 50.6697 42.402 55.3153 40.246 61.27C38.1413 67.1733 37.089 73.9237 37.089 81.521C37.089 84.7037 37.397 87.527 38.013 89.991C38.6803 92.455 39.5017 94.38 40.477 95.766C41.5037 97.1007 42.479 97.768 43.403 97.768C44.6863 97.768 45.6617 95.997 46.329 92.455L48.87 77.902C46.868 77.594 45.9953 77.4657 46.252 77.517C44.712 77.2603 43.711 76.7983 43.249 76.131C42.787 75.4123 42.556 74.514 42.556 73.436C42.556 72.3067 42.864 71.4083 43.48 70.741C44.1473 70.0737 45.0457 69.74 46.175 69.74C46.6883 69.74 47.0733 69.7657 47.33 69.817C48.562 70.0223 49.5117 70.1507 50.179 70.202C50.8463 66.198 51.796 60.8337 53.028 54.109C53.336 52.3637 54.029 51.1317 55.107 50.413C56.2363 49.643 57.5453 49.258 59.034 49.258C60.728 49.258 61.9343 49.5917 62.653 50.259C63.423 50.875 63.808 51.876 63.808 53.262C63.808 54.0833 63.7567 54.7507 63.654 55.264L61.113 70.202ZM124.46 81.829C125.127 81.829 125.641 82.137 126 82.753C126.411 83.369 126.616 84.216 126.616 85.294C126.616 87.3473 126.128 88.9387 125.153 90.068C122.946 92.7887 120.533 95.0217 117.915 96.767C115.348 98.5123 112.422 99.385 109.137 99.385C104.62 99.385 101.257 97.3317 99.0499 93.225C96.8939 89.1183 95.8159 83.8053 95.8159 77.286C95.8159 71.0233 96.6116 63.888 98.2029 55.88C99.8456 47.872 102.233 40.9933 105.364 35.244C108.547 29.4947 112.32 26.62 116.683 26.62C119.147 26.62 121.072 27.775 122.458 30.085C123.895 32.3437 124.614 35.6033 124.614 39.864C124.614 45.9727 122.92 53.0567 119.532 61.116C116.144 69.1753 111.55 77.1577 105.749 85.063C106.108 87.1677 106.699 88.682 107.52 89.606C108.341 90.4787 109.419 90.915 110.754 90.915C112.859 90.915 114.707 90.3247 116.298 89.144C117.889 87.912 119.917 85.833 122.381 82.907C122.997 82.1883 123.69 81.829 124.46 81.829ZM114.989 34.243C113.808 34.243 112.474 36.3733 110.985 40.634C109.496 44.8947 108.187 50.182 107.058 56.496C105.929 62.81 105.313 68.8673 105.21 74.668C108.855 68.662 111.755 62.656 113.911 56.65C116.067 50.5927 117.145 45.0743 117.145 40.095C117.145 36.1937 116.426 34.243 114.989 34.243ZM133.731 99.385C130.549 99.385 128.008 98.23 126.108 95.92C124.209 93.61 123.259 90.5813 123.259 86.834C123.259 82.7273 124.209 78.8517 126.108 75.207C128.008 71.511 130.523 68.5593 133.654 66.352C136.837 64.0933 140.199 62.964 143.741 62.964C144.871 62.964 145.615 63.195 145.974 63.657C146.385 64.0677 146.719 64.8377 146.975 65.967C148.053 65.7617 149.183 65.659 150.363 65.659C152.879 65.659 154.136 66.5573 154.136 68.354C154.136 69.432 153.751 71.9987 152.981 76.054C151.801 81.9573 151.21 86.064 151.21 88.374C151.21 89.144 151.39 89.76 151.749 90.222C152.16 90.684 152.673 90.915 153.289 90.915C154.265 90.915 155.445 90.299 156.831 89.067C158.217 87.7837 160.091 85.7303 162.452 82.907C163.068 82.1883 163.761 81.829 164.531 81.829C165.199 81.829 165.712 82.137 166.071 82.753C166.482 83.369 166.687 84.216 166.687 85.294C166.687 87.3473 166.2 88.9387 165.224 90.068C163.12 92.686 160.887 94.8933 158.525 96.69C156.164 98.4867 153.88 99.385 151.672 99.385C149.978 99.385 148.413 98.8203 146.975 97.691C145.589 96.5103 144.537 94.919 143.818 92.917C141.149 97.229 137.787 99.385 133.731 99.385ZM136.503 91.608C137.633 91.608 138.711 90.9407 139.737 89.606C140.764 88.2713 141.508 86.5003 141.97 84.293L144.819 70.125C142.663 70.1763 140.661 70.9977 138.813 72.589C137.017 74.129 135.579 76.1823 134.501 78.749C133.423 81.3157 132.884 84.0363 132.884 86.911C132.884 88.5023 133.192 89.683 133.808 90.453C134.476 91.223 135.374 91.608 136.503 91.608ZM170.516 99.385C168.565 99.385 167.179 98.3583 166.358 96.305C165.588 94.2517 165.203 90.9663 165.203 86.449C165.203 79.7757 166.153 73.436 168.052 67.43C168.514 65.9413 169.258 64.8633 170.285 64.196C171.363 63.4773 172.852 63.118 174.751 63.118C175.778 63.118 176.496 63.2463 176.907 63.503C177.318 63.7597 177.523 64.2473 177.523 64.966C177.523 65.7873 177.138 67.6353 176.368 70.51C175.855 72.5633 175.444 74.36 175.136 75.9C174.828 77.44 174.571 79.3393 174.366 81.598C176.06 77.1833 177.959 73.59 180.064 70.818C182.169 68.046 184.222 66.0697 186.224 64.889C188.277 63.7083 190.151 63.118 191.845 63.118C195.182 63.118 196.85 64.7863 196.85 68.123C196.85 70.125 196.285 73.744 195.156 78.98C194.181 83.446 193.693 86.3977 193.693 87.835C193.693 89.8883 194.437 90.915 195.926 90.915C196.953 90.915 198.159 90.299 199.545 89.067C200.983 87.7837 202.882 85.7303 205.243 82.907C205.859 82.1883 206.552 81.829 207.322 81.829C207.989 81.829 208.503 82.137 208.862 82.753C209.273 83.369 209.478 84.216 209.478 85.294C209.478 87.3473 208.99 88.9387 208.015 90.068C205.808 92.7887 203.421 95.0217 200.854 96.767C198.339 98.5123 195.464 99.385 192.23 99.385C189.612 99.385 187.636 98.6407 186.301 97.152C184.966 95.612 184.299 93.4047 184.299 90.53C184.299 89.0927 184.658 86.526 185.377 82.83C186.044 79.596 186.378 77.363 186.378 76.131C186.378 75.3097 186.096 74.899 185.531 74.899C184.864 74.899 183.914 75.7717 182.682 77.517C181.501 79.211 180.269 81.4697 178.986 84.293C177.754 87.1163 176.753 90.0937 175.983 93.225C175.418 95.6377 174.751 97.2803 173.981 98.153C173.262 98.9743 172.107 99.385 170.516 99.385ZM242.21 34.166C243.545 34.166 244.674 34.4997 245.598 35.167C246.522 35.783 246.984 36.553 246.984 37.477C246.984 39.1197 246.471 40.4543 245.444 41.481C244.418 42.4563 242.955 42.944 241.055 42.944C238.078 42.944 235.819 42.9697 234.279 43.021C234.177 43.637 233.715 46.409 232.893 51.337C231.969 56.8297 231.405 60.192 231.199 61.424L229.582 71.511C228.453 79.057 227.555 85.371 226.887 90.453C227.965 90.4017 229.428 90.376 231.276 90.376C233.997 90.376 235.845 90.7353 236.82 91.454C237.796 92.1727 238.283 93.2507 238.283 94.688C238.283 96.0227 237.744 97.152 236.666 98.076C235.64 99 234.177 99.462 232.277 99.462C230.994 99.462 228.966 99.4107 226.194 99.308C223.628 99.2053 221.934 99.154 221.112 99.154C217.878 99.154 214.336 99.4363 210.486 100.001C208.792 100.258 207.586 100.386 206.867 100.386C205.738 100.386 204.788 100.078 204.018 99.462C203.248 98.846 202.863 97.9477 202.863 96.767C202.863 94.919 203.685 93.4817 205.327 92.455C206.97 91.4283 209.28 90.8893 212.257 90.838L215.876 90.761L216.107 89.067C217.339 80.8537 218.238 75.053 218.802 71.665L220.496 61.578C221.523 55.6233 222.447 49.489 223.268 43.175L216.8 43.252C214.952 43.252 213.669 42.9697 212.95 42.405C212.283 41.789 211.949 40.942 211.949 39.864C211.949 36.3733 214.465 34.4997 219.495 34.243C221.857 34.1403 224.731 34.089 228.119 34.089L242.21 34.166ZM263.317 70.433C263.215 72.9997 263.163 75.0017 263.163 76.439C263.163 80.135 263.343 83.0353 263.702 85.14C264.113 87.1933 264.755 88.682 265.627 89.606C266.551 90.4787 267.809 90.915 269.4 90.915C270.222 90.915 271.197 90.6583 272.326 90.145C273.456 89.6317 274.482 88.9643 275.406 88.143C275.971 87.6297 276.536 87.373 277.1 87.373C277.716 87.373 278.204 87.7323 278.563 88.451C278.974 89.1183 279.179 89.9397 279.179 90.915C279.179 91.8903 278.974 92.84 278.563 93.764C278.204 94.688 277.639 95.458 276.869 96.074C274.2 98.2813 271.171 99.385 267.783 99.385C262.907 99.385 259.339 97.3573 257.08 93.302C254.822 89.1953 253.692 83.8567 253.692 77.286C253.692 75.0273 253.769 72.743 253.923 70.433H250.92C249.38 70.433 248.328 70.1507 247.763 69.586C247.25 69.0213 246.993 68.123 246.993 66.891C246.993 64.0163 248.148 62.579 250.458 62.579H254.847C255.72 56.9323 257.055 51.7733 258.851 47.102C260.648 42.4307 262.804 38.709 265.319 35.937C267.886 33.165 270.632 31.779 273.558 31.779C275.714 31.779 277.408 32.7287 278.64 34.628C279.872 36.5273 280.488 38.9143 280.488 41.789C280.488 49.7457 277.152 56.6757 270.478 62.579H279.102C279.924 62.579 280.514 62.7587 280.873 63.118C281.233 63.4773 281.412 64.1447 281.412 65.12C281.412 68.662 278.512 70.433 272.711 70.433H263.317ZM271.479 39.171C270.709 39.171 269.837 40.1463 268.861 42.097C267.937 43.9963 267.039 46.6657 266.166 50.105C265.345 53.493 264.652 57.266 264.087 61.424C267.116 58.806 269.375 55.88 270.863 52.646C272.403 49.3607 273.173 46.3833 273.173 43.714C273.173 40.6853 272.609 39.171 271.479 39.171Z" fill="white"/>
</g>
<path d="M394.391 116.43L443.53 31.2L452.152 16.24L394.391 116.43ZM381.387 139L381.377 139.01L373.312 153" fill="black"/>
<path d="M483.906 69.5C483.906 102.866 449.677 131 405.953 131C362.229 131 328 102.866 328 69.5C328 36.1345 362.229 8 405.953 8C449.677 8 483.906 36.1345 483.906 69.5Z" fill="black" stroke="white" stroke-width="6"/>
<path d="M443.635 34L443.542 114.38L435.632 114.37L435.694 62.12L405.376 114.33L397.188 114.32L443.635 34Z" fill="white"/>
<rect width="5.14365" height="180.356" transform="matrix(0.87833 0.478054 -0.500957 0.865472 455.569 -6)" fill="white"/>
</g>
<defs>
<filter id="filter0_d" x="24.542" y="26.62" width="260.87" height="88.773" filterUnits="userSpaceOnUse" color-interpolation-filters="sRGB">
<feFlood flood-opacity="0" result="BackgroundImageFix"/>
<feColorMatrix in="SourceAlpha" type="matrix" values="0 0 0 0 0 0 0 0 0 0 0 0 0 0 0 0 0 0 127 0"/>
<feOffset dy="4"/>
<feGaussianBlur stdDeviation="2"/>
<feColorMatrix type="matrix" values="0 0 0 0 0 0 0 0 0 0 0 0 0 0 0 0 0 0 0.25 0"/>
<feBlend mode="normal" in2="BackgroundImageFix" result="effect1_dropShadow"/>
<feBlend mode="normal" in="SourceGraphic" in2="effect1_dropShadow" result="shape"/>
</filter>
<clipPath id="clip0">
<rect width="495" height="139" fill="white"/>
</clipPath>
</defs>
</svg>
